<?xml version="1.0" standalone="no"?>
<!DOCTYPE svg PUBLIC "-//W3C//DTD SVG 20010904//EN"
 "http://www.w3.org/TR/2001/REC-SVG-20010904/DTD/svg10.dtd">
<svg version="1.0" xmlns="http://www.w3.org/2000/svg"
 width="600.000000pt" height="327.000000pt" viewBox="0 0 600.000000 327.000000"
 preserveAspectRatio="xMidYMid meet">
<g transform="translate(0.000000,327.000000) scale(0.100000,-0.100000)"
fill="#000000" stroke="none">
<path d="M2446 2382 c-3 -5 1 -9 9 -9 8 0 12 4 9 9 -3 4 -7 8 -9 8 -2 0 -6 -4
-9 -8z"/>
<path d="M2098 2360 c-11 -7 -18 -23 -18 -40 0 -18 7 -33 18 -39 9 -5 72 -9
138 -9 67 0 131 -3 143 -7 30 -9 40 -33 116 -270 65 -202 69 -212 114 -256 28
-29 61 -51 86 -58 22 -6 117 -11 210 -11 l170 0 16 -28 c18 -32 74 -62 113
-62 77 0 136 60 136 138 0 58 -25 98 -78 123 -61 30 -105 20 -159 -37 l-43
-44 -154 0 c-85 0 -167 5 -183 11 -59 22 -71 46 -144 271 -39 120 -81 232 -92
250 -42 62 -76 73 -232 76 -87 1 -147 -2 -157 -8z m290 -25 c14 -4 20 -10 16
-17 -4 -6 -3 -8 4 -4 6 3 22 1 35 -5 18 -8 24 -18 22 -35 -1 -14 2 -27 8 -31
6 -4 7 -1 2 7 -5 8 -4 11 3 6 6 -4 8 -14 5 -23 -4 -9 -2 -14 3 -10 5 3 10 -2
11 -11 1 -9 9 -37 18 -62 13 -34 14 -50 6 -70 -10 -23 -10 -24 3 -6 14 18 15
17 22 -8 3 -14 4 -33 0 -41 -3 -8 0 -14 7 -12 6 1 13 -9 15 -23 2 -13 13 -46
23 -73 11 -27 16 -53 13 -59 -4 -7 -2 -8 4 -4 8 5 12 0 12 -12 0 -11 7 -25 16
-33 8 -7 13 -21 11 -31 -3 -10 0 -21 5 -25 7 -3 8 -1 4 5 -9 15 20 11 53 -7
18 -10 69 -13 193 -12 l168 2 0 -23 0 -24 -137 2 c-76 1 -149 4 -163 8 -22 6
-23 5 -5 -4 18 -9 17 -10 -5 -5 -14 2 -33 5 -43 5 -10 0 -16 4 -13 9 4 5 -4 7
-16 4 -22 -4 -23 -4 -4 11 11 9 14 16 7 16 -7 0 -9 5 -5 12 4 7 3 8 -5 4 -6
-4 -8 -12 -5 -18 4 -7 -2 -8 -17 -3 -39 12 -51 26 -44 54 6 25 6 25 -10 6 -16
-20 -16 -20 -9 4 5 18 3 22 -7 15 -11 -6 -11 -5 0 9 12 15 12 17 -4 10 -15 -5
-17 -3 -12 11 4 11 3 15 -4 10 -8 -4 -9 1 -4 16 5 17 4 21 -6 15 -9 -6 -11 -4
-6 8 3 9 2 19 -4 23 -6 3 -8 13 -5 21 3 8 1 11 -4 8 -8 -5 -15 28 -7 38 1 2
-4 11 -11 19 -7 9 -15 24 -17 34 -2 11 -13 48 -25 84 -12 36 -23 76 -25 89 -1
13 -7 26 -11 30 -5 3 -17 18 -26 32 -16 25 -19 26 -139 28 -77 1 -129 7 -138
14 -11 9 -13 9 -8 1 4 -7 1 -14 -7 -17 -17 -7 -16 36 1 43 15 6 229 2 261 -5z
m838 -516 c3 -5 11 -9 17 -9 7 0 6 4 -3 10 -12 8 -12 10 -1 10 7 0 29 -16 48
-37 30 -31 34 -41 30 -75 -2 -21 -13 -48 -23 -60 -13 -15 -14 -19 -4 -14 8 4
4 -1 -9 -10 -36 -28 -84 -33 -131 -16 -33 13 -34 14 -16 28 22 15 52 19 58 6
2 -5 18 -5 36 0 18 5 30 13 27 17 -3 5 1 11 8 14 8 3 13 16 11 29 -1 12 -3 28
-3 33 -2 16 -41 37 -78 40 -18 1 -31 0 -29 -2 7 -7 -18 -32 -26 -26 -4 2 -5
-3 -2 -12 4 -9 -1 -21 -11 -29 -14 -10 -15 -15 -5 -21 9 -5 11 -4 6 3 -4 7 -2
12 5 12 6 0 9 -8 6 -19 -3 -15 -1 -18 12 -14 13 4 12 2 -3 -11 -31 -26 -56 -1
-56 57 0 30 4 46 10 42 6 -3 10 -1 10 5 0 6 5 8 10 5 6 -4 10 -3 9 2 -8 43 74
79 97 42z m22 -102 c4 -34 -30 -54 -64 -38 -31 14 -32 54 -2 75 19 13 25 14
43 2 11 -7 21 -25 23 -39z"/>
<path d="M2011 2334 c0 -11 3 -14 6 -6 3 7 2 16 -1 19 -3 4 -6 -2 -5 -13z"/>
<path d="M3000 2296 c7 -7 13 -7 20 0 6 6 3 10 -10 10 -13 0 -16 -4 -10 -10z"/>
<path d="M2546 2267 c3 -10 9 -15 12 -12 3 3 0 11 -7 18 -10 9 -11 8 -5 -6z"/>
<path d="M2833 2264 c-7 -3 -13 -17 -13 -30 0 -22 -4 -24 -50 -24 -40 0 -51
-4 -60 -21 -18 -32 4 -49 61 -49 l49 0 0 -35 0 -35 -50 0 c-54 0 -76 -19 -59
-52 7 -14 22 -18 59 -18 46 0 49 -2 52 -27 l3 -28 82 0 c93 0 124 15 158 79
l20 37 353 -3 354 -3 20 -25 c13 -16 18 -34 15 -55 -7 -49 -144 -474 -162
-501 -9 -14 -30 -34 -48 -44 -30 -19 -53 -20 -433 -20 l-400 0 -34 106 c-21
64 -41 108 -50 111 -8 2 -35 13 -59 24 -41 19 -43 19 -36 2 10 -24 83 -248 82
-248 -1 0 -20 -10 -42 -21 -115 -61 -148 -207 -69 -310 28 -38 98 -74 142 -74
25 0 35 -6 46 -29 28 -53 100 -81 159 -62 116 39 131 204 23 255 -66 31 -143
11 -182 -49 -18 -28 -42 -32 -82 -11 -54 28 -73 108 -38 161 35 54 47 55 521
55 484 0 477 -1 546 66 46 45 53 61 139 334 44 142 70 242 70 271 0 51 -26 98
-73 133 -27 20 -41 21 -397 24 l-368 3 -12 30 c-7 17 -29 42 -48 57 -29 22
-47 27 -106 29 -39 1 -77 0 -83 -3z m157 -36 c10 -9 21 -14 24 -11 3 4 6 4 6
1 0 -3 -10 -13 -22 -24 -19 -17 -21 -17 -15 -1 4 9 2 17 -4 17 -6 0 -8 4 -4 9
3 5 1 12 -4 16 -6 3 -8 -2 -7 -12 3 -14 -3 -18 -24 -18 -15 0 -26 3 -24 7 2 4
0 9 -6 13 -5 3 -10 -1 -10 -10 0 -10 -5 -13 -12 -9 -7 4 -8 3 -4 -4 4 -7 3
-12 -2 -12 -5 0 -8 -25 -8 -55 1 -30 -3 -55 -7 -55 -5 0 -5 -5 -1 -11 4 -7 8
-26 8 -43 1 -29 4 -31 41 -31 52 -1 69 8 94 49 23 37 27 86 9 104 -9 9 -9 12
2 12 9 0 8 5 -6 15 -10 8 -17 15 -14 15 31 7 39 7 34 -1 -3 -5 -2 -9 3 -9 4 0
15 -13 24 -28 l16 -29 349 -2 c192 -1 362 -4 378 -6 41 -5 96 -71 80 -97 -4
-6 -3 -8 3 -5 6 4 13 1 15 -6 7 -19 -12 -98 -23 -92 -5 3 -6 -1 -3 -9 6 -14
-5 -21 -28 -17 -4 0 -5 -6 -1 -15 5 -13 7 -13 15 -2 12 18 5 -29 -10 -65 -7
-16 -12 -35 -12 -43 0 -8 -4 -13 -9 -9 -5 3 -13 0 -17 -6 -4 -8 -3 -9 4 -5 7
4 12 1 12 -8 0 -9 -4 -16 -9 -16 -5 0 -7 -8 -4 -19 3 -10 -1 -22 -8 -27 -9 -5
-10 -2 -6 10 4 10 3 15 -4 11 -5 -4 -7 -15 -4 -26 7 -21 -22 -122 -33 -115 -4
2 -7 -9 -8 -24 -1 -15 -5 -36 -9 -46 -5 -11 -9 -23 -10 -29 0 -5 -6 -9 -13 -8
-6 2 -9 -4 -6 -12 4 -8 1 -15 -5 -15 -6 0 -11 -6 -11 -14 0 -8 -5 -18 -12 -22
-7 -5 -9 -2 -4 7 4 8 1 6 -8 -5 -8 -10 -20 -15 -27 -10 -8 5 -10 3 -4 -6 6
-10 4 -12 -8 -7 -9 3 -17 1 -20 -6 -4 -13 -17 -13 -649 -17 -169 -2 -305 -6
-303 -10 8 -12 -23 -32 -36 -24 -8 4 -9 3 -5 -4 6 -11 -11 -51 -27 -63 -4 -3
-4 -17 1 -30 5 -13 7 -30 5 -36 -3 -7 1 -13 7 -13 7 0 9 -8 5 -21 -5 -15 -4
-19 4 -15 6 4 11 5 11 2 0 -2 3 -13 7 -23 6 -15 5 -16 -9 -5 -12 9 -18 10 -23
2 -4 -6 -4 -14 -1 -17 3 -4 6 -1 6 6 0 7 5 9 10 6 6 -4 8 -10 6 -14 -3 -4 1
-8 9 -8 8 0 13 4 12 8 -3 12 12 10 43 -6 17 -9 30 -13 30 -9 0 4 8 0 17 -7 11
-10 14 -10 9 -1 -4 7 -1 12 9 12 9 0 14 4 11 8 -2 4 7 8 21 7 15 0 28 -6 31
-13 2 -8 -3 -10 -15 -6 -17 5 -17 5 0 -6 9 -6 15 -15 12 -21 -11 -16 -14 -50
-5 -44 5 3 11 1 15 -5 4 -6 11 -7 17 -4 7 5 9 2 5 -8 -4 -13 0 -14 31 -7 20 4
40 5 44 3 5 -3 8 -2 7 3 -5 28 2 36 15 18 13 -18 14 -18 23 0 7 12 12 14 17 6
10 -15 -13 -43 -30 -37 -8 3 -11 0 -8 -9 8 -20 -36 -30 -98 -23 -10 1 -18 5
-18 10 0 4 -7 8 -16 8 -14 0 -15 3 -3 18 7 9 10 14 5 10 -11 -10 -46 9 -46 25
0 8 4 7 11 -3 8 -12 10 -12 7 -1 -2 8 -14 16 -26 18 -23 3 -35 6 -88 18 -37 8
-94 57 -94 79 0 9 -5 16 -11 16 -7 0 -10 12 -7 29 2 17 1 28 -3 25 -10 -6 1
68 12 82 5 6 7 13 4 16 -5 5 37 53 75 83 l25 20 -15 -20 c-12 -17 -10 -16 11
3 14 12 28 20 31 17 14 -15 -2 79 -21 120 -12 26 -21 57 -19 69 2 11 -4 27
-12 34 -13 11 -11 11 8 2 12 -6 26 -9 31 -6 4 3 8 0 8 -7 0 -7 8 -30 18 -52
10 -22 17 -44 16 -48 0 -4 6 -21 15 -38 8 -17 11 -28 5 -25 -6 4 -11 3 -11 -1
0 -5 9 -14 20 -21 11 -6 18 -17 16 -24 -1 -7 -1 -11 1 -8 1 3 182 4 400 3 238
-1 404 2 415 8 12 6 18 6 18 0 0 -6 7 -8 16 -4 13 5 13 7 2 14 -11 7 -11 9 1
9 7 0 22 12 33 26 16 20 23 23 30 12 7 -10 8 -8 7 7 -3 36 1 46 13 39 8 -5 9
-2 5 10 -4 10 -1 27 7 38 8 11 12 26 10 33 -3 7 -1 16 5 20 6 3 11 17 11 31 0
14 5 35 11 46 6 11 13 35 16 52 3 17 9 36 15 43 5 6 11 24 13 40 2 15 4 30 5
33 0 3 6 -5 13 -17 l12 -23 14 23 c13 20 13 21 -1 9 -21 -17 -31 8 -18 43 5
14 7 25 5 25 -3 0 1 15 8 33 8 17 12 38 10 45 -3 6 0 12 6 12 6 0 4 8 -4 18
-8 9 -14 19 -13 22 3 11 -23 50 -35 50 -7 0 -6 -4 3 -10 20 -13 4 -13 -20 0
-17 9 -272 14 -568 11 l-142 -1 -28 -40 c-15 -21 -31 -39 -35 -40 -5 0 -15 -6
-23 -14 -7 -8 -24 -12 -36 -9 -19 4 -20 3 -8 -6 11 -8 4 -11 -32 -9 -26 1 -45
5 -42 9 3 5 -2 6 -10 3 -9 -3 -13 -11 -9 -17 3 -6 1 -7 -6 -3 -6 4 -9 11 -6
16 10 16 -31 53 -58 53 -15 0 -27 5 -27 11 0 6 -4 4 -10 -4 -5 -8 -12 -11 -15
-8 -14 13 6 26 40 26 19 0 32 -4 29 -9 -3 -5 -1 -9 5 -9 5 0 13 9 16 20 4 11
10 18 14 16 4 -3 7 12 7 32 -1 20 -7 41 -14 45 -7 5 -9 13 -6 19 5 7 -1 9 -16
5 -29 -7 -81 3 -74 14 3 5 23 9 44 9 29 0 43 6 54 22 8 12 13 24 11 28 -9 14
127 3 145 -12z m-16 -60 c40 -35 43 -78 11 -116 -20 -24 -35 -32 -58 -32 l-32
0 0 85 0 85 27 0 c15 0 38 -10 52 -22z m-64 -1020 c0 -8 -16 -12 -33 -9 -5 1
-6 -3 -3 -8 9 -14 -20 -32 -58 -35 -20 -2 -36 -1 -36 1 0 3 13 17 28 31 20 19
40 27 65 28 21 0 37 -3 37 -8z m24 -10 c-5 -8 -2 -9 9 -5 9 3 19 1 23 -5 5 -7
2 -8 -7 -4 -8 4 -6 1 5 -8 11 -9 16 -22 12 -31 -3 -9 -2 -13 4 -10 11 7 25
-39 15 -55 -3 -5 -11 -8 -16 -5 -5 4 -12 -2 -16 -11 -6 -16 -7 -16 -14 2 -3
10 -2 25 3 32 7 8 7 12 -2 12 -10 0 -10 3 0 16 11 12 11 15 0 12 -8 -2 -14 4
-15 12 0 8 -7 15 -15 16 -43 3 -45 5 -20 24 28 22 45 26 34 8z m-22 -65 c25
-22 23 -50 -6 -68 -47 -31 -95 26 -55 66 23 23 37 24 61 2z m-81 -70 c13 -16
12 -17 -3 -4 -10 7 -18 15 -18 17 0 8 8 3 21 -13z"/>
<path d="M3786 1723 c-6 -14 -5 -15 5 -6 7 7 10 15 7 18 -3 3 -9 -2 -12 -12z"/>
<path d="M2725 1370 c-3 -6 1 -7 9 -4 18 7 21 14 7 14 -6 0 -13 -4 -16 -10z"/>
<path d="M2582 1180 c0 -14 2 -19 5 -12 2 6 2 18 0 25 -3 6 -5 1 -5 -13z"/>
<path d="M2710 1046 c0 -2 7 -7 16 -10 8 -3 12 -2 9 4 -6 10 -25 14 -25 6z"/>
<path d="M3086 2213 c-6 -14 -5 -15 5 -6 7 7 10 15 7 18 -3 3 -9 -2 -12 -12z"/>
<path d="M3766 2008 c3 -5 10 -6 15 -3 13 9 11 12 -6 12 -8 0 -12 -4 -9 -9z"/>
<path d="M3341 1844 c0 -11 3 -14 6 -6 3 7 2 16 -1 19 -3 4 -6 -2 -5 -13z"/>
<path d="M2565 1721 c-3 -5 -2 -12 3 -15 5 -3 9 1 9 9 0 17 -3 19 -12 6z"/>
<path d="M3049 1638 c-5 -19 -8 -50 -4 -46 7 7 15 48 9 48 -2 0 -4 -1 -5 -2z"/>
<path d="M3335 1611 c-3 -5 -2 -12 3 -15 5 -3 9 1 9 9 0 17 -3 19 -12 6z"/>
<path d="M2770 1601 c0 -6 4 -13 10 -16 6 -3 7 1 4 9 -7 18 -14 21 -14 7z"/>
<path d="M3612 1501 c-11 -7 -11 -9 0 -14 9 -3 15 1 15 9 0 8 -1 14 -1 14 -1
0 -7 -4 -14 -9z"/>
<path d="M2586 1412 c-3 -5 1 -15 8 -21 11 -10 14 -9 12 3 -3 21 -13 29 -20
18z"/>
<path d="M2535 1339 c-4 -6 -5 -12 -2 -15 2 -3 7 2 10 11 7 17 1 20 -8 4z"/>
<path d="M2680 1235 c-11 -13 -10 -14 4 -9 9 3 16 10 16 15 0 13 -6 11 -20 -6z"/>
<path d="M2716 1178 c3 -5 10 -6 15 -3 13 9 11 12 -6 12 -8 0 -12 -4 -9 -9z"/>
<path d="M2980 1184 c0 -1 8 -8 17 -15 11 -10 14 -10 9 -1 -4 6 -3 12 1 12 5
0 15 -6 23 -12 12 -11 12 -10 1 4 -7 9 -21 16 -32 15 -10 -1 -19 -2 -19 -3z"/>
<path d="M3418 1183 c6 -2 9 -10 6 -15 -4 -7 -2 -8 5 -4 13 9 5 26 -12 25 -9
0 -8 -2 1 -6z"/>
<path d="M3651 1181 c-10 -6 -9 -10 3 -14 8 -3 18 -2 21 3 8 13 -9 20 -24 11z"/>
<path d="M3473 1170 c-11 -5 -34 -25 -50 -44 l-28 -36 -160 0 -160 0 0 -51 0
-51 161 4 162 3 15 -27 c39 -67 135 -85 199 -36 128 97 10 298 -139 238z m92
-18 c6 -1 22 -13 38 -26 19 -16 25 -29 20 -41 -5 -13 -3 -16 6 -10 10 6 11 2
6 -15 -5 -14 -3 -20 3 -16 6 4 8 -2 5 -14 -3 -11 -9 -20 -13 -20 -5 0 -10 -10
-12 -22 -2 -12 -10 -24 -18 -26 -13 -5 -13 -3 -1 11 7 10 9 17 4 17 -5 0 -9
14 -9 30 0 17 3 30 8 30 4 0 5 7 2 15 -4 8 -9 13 -14 10 -4 -2 -13 6 -20 19
-11 21 -16 23 -44 14 -17 -5 -36 -10 -43 -11 -7 0 -10 -4 -7 -8 2 -4 -1 -9 -6
-11 -6 -2 -12 -11 -13 -20 -2 -9 -9 -24 -17 -34 -12 -16 -12 -17 0 -6 15 13
34 17 26 4 -2 -4 1 -14 7 -22 13 -17 73 -57 64 -44 -3 5 6 17 18 27 18 12 26
14 31 5 4 -6 2 -14 -5 -16 -11 -4 -11 -6 0 -13 12 -8 11 -11 -1 -19 -8 -5 -20
-8 -27 -5 -7 2 -15 0 -18 -5 -4 -6 -11 -10 -16 -10 -6 0 -8 4 -4 9 6 10 -33
26 -42 18 -5 -6 -49 35 -46 43 0 3 -5 11 -13 18 -8 7 -14 10 -14 7 0 -3 -5 -3
-11 0 -6 4 -70 6 -144 6 -131 -2 -151 3 -140 31 4 10 34 12 135 10 98 -2 129
-6 123 -15 -4 -7 8 0 26 16 18 15 37 25 42 22 5 -4 7 0 4 7 -6 19 21 52 36 42
7 -4 10 -3 5 4 -9 15 36 22 89 14z m-7 -74 c21 -21 15 -68 -10 -77 -47 -18
-85 34 -52 70 20 22 44 25 62 7z"/>
<path d="M3641 917 c-8 -11 -6 -18 8 -31 13 -12 21 -14 26 -6 4 6 4 14 1 17
-3 4 -6 1 -6 -6 0 -7 -4 -10 -9 -6 -6 3 -8 14 -6 25 5 23 1 25 -14 7z"/>
<path d="M3015 900 c-18 -20 -18 -21 0 -14 14 6 16 4 10 -7 -4 -8 -4 -11 0 -6
7 6 16 47 10 47 -1 0 -10 -9 -20 -20z"/>
<path d="M2770 894 c-15 -9 -17 -13 -6 -10 10 4 24 2 31 -4 9 -8 15 -8 20 0 4
6 1 9 -7 8 -7 -2 -12 3 -10 10 3 15 3 15 -28 -4z"/>
</g>
</svg>
